<svg id="Layer_1" data-name="Layer 1" xmlns="http://www.w3.org/2000/svg" viewBox="0 0 164.21 139.87"><defs><style>.cls-1{fill:#c7ede6;}.cls-2,.cls-3,.cls-4{fill:#fdfcef;}.cls-2,.cls-3,.cls-4,.cls-5,.cls-7{stroke:#472b29;}.cls-2,.cls-3,.cls-6,.cls-7{stroke-linejoin:round;}.cls-2,.cls-5,.cls-6,.cls-7{stroke-width:2px;}.cls-3,.cls-7{stroke-linecap:round;}.cls-4,.cls-5{stroke-miterlimit:10;}.cls-4{stroke-width:3px;}.cls-5{fill:#a1d3a2;}.cls-6{fill:#5851bc;stroke:#5851bc;}.cls-7{fill:none;}</style></defs><title>aform</title><path class="cls-1" d="M488.5,378.5c1.15-3.34,6.86-18.74,22.5-25.5,18.26-7.89,39.13.73,50,14a44.94,44.94,0,0,1,9.5,22.5c1.35.36,16.06,4.54,21.5,19.5,4.89,13.44-1.58,24.93-2.5,26.5,7.44,9.35,6.77,22.21-.5,29.5-5.56,5.57-14.38,7.3-22.5,4.5A22.82,22.82,0,0,1,548,484c-12.28,1.47-20.06-7.94-20.5-8.5C517.34,486.78,502.25,492,488,489c-17.49-3.73-30.94-19.38-32.5-38.5-8.89-2.36-15.74-9.15-17.5-17.5-2.27-10.78,4.29-22.58,16-27-1.46-11.83,4.2-22.9,13.71-27.48S486.9,377.81,488.5,378.5Z" transform="translate(-437.55 -349.98)"/><path class="cls-2" d="M562,407s12-6,14,8a9.18,9.18,0,0,1,16,8,7.66,7.66,0,0,1,3,15H542S547,406,562,407Z" transform="translate(-437.55 -349.98)"/><path class="cls-3" d="M586.5,430.5a5.78,5.78,0,0,1,1-5,5.67,5.67,0,0,1,4-2" transform="translate(-437.55 -349.98)"/><rect class="cls-4" x="38.95" y="33.52" width="86" height="86" rx="10.14" ry="10.14"/><path class="cls-2" d="M531,390H486.52a3.53,3.53,0,0,0-3.52,3.52V416" transform="translate(-437.55 -349.98)"/><path class="cls-2" d="M483,423V458a4,4,0,0,0,4.05,4.05H524" transform="translate(-437.55 -349.98)"/><path class="cls-2" d="M478.11,432.8c3.14,1.84,3.23,5.85,3.24,6.09a6.83,6.83,0,0,1,11.9,5.95A5.7,5.7,0,0,1,495.48,456H456.06a6.14,6.14,0,0,1-2.23-5.95c.66-2.88,3.86-5,7.44-4.46-1.28-2.63-.46-5.53,1.48-6.7a5.08,5.08,0,0,1,4.46,0,8.21,8.21,0,0,1,2.24-4.46C471.41,432.49,475.1,431,478.11,432.8Z" transform="translate(-437.55 -349.98)"/><path class="cls-3" d="M489.15,450.42a4.31,4.31,0,0,1,.75-3.72,4.19,4.19,0,0,1,3-1.48" transform="translate(-437.55 -349.98)"/><line class="cls-2" x1="117.45" y1="44.02" x2="117.45" y2="53.02"/><line class="cls-2" x1="117.45" y1="57.68" x2="117.45" y2="66.02"/><line class="cls-2" x1="117.45" y1="72.02" x2="117.45" y2="108.02"/><rect class="cls-5" x="53.45" y="46.02" width="57" height="10"/><rect class="cls-6" x="53.45" y="66.35" width="14" height="14"/><rect class="cls-6" x="74.95" y="66.35" width="14" height="14"/><rect class="cls-6" x="96.45" y="66.35" width="14" height="14"/><line class="cls-7" x1="71.95" y1="89.52" x2="86.95" y2="89.52"/><line class="cls-7" x1="93.95" y1="89.52" x2="108.95" y2="89.52"/><line class="cls-7" x1="71.95" y1="97.52" x2="101.95" y2="97.52"/><line class="cls-7" x1="71.95" y1="103.52" x2="96.95" y2="103.52"/></svg>