<svg xmlns="http://www.w3.org/2000/svg" viewBox="0 0 187.6 187.56"><title>Asset 1</title><g id="Layer_2" data-name="Layer 2"><g id="Layer_1-2" data-name="Layer 1"><g id="D6PXE4"><path d="M100.52,39.09C94.91,44.47,89.4,50,83.61,55.15c-1.14,1-3.32,1.26-5,1.27-18,.08-36,0-54,0h-5.8V168.82H131.12v-8c0-17.16-.11-34.33.12-51.49a11.51,11.51,0,0,1,2.77-6.87c4.62-5.21,9.7-10,15.23-15.61a31.28,31.28,0,0,1,.55,3.83q0,38.25,0,76.49c0,13-7.47,20.39-20.51,20.4q-54.75,0-109.48,0C7.71,187.53.05,180,0,168.05q-.08-55.5,0-111C.05,46.15,7.4,38,18.18,37.89c27.14-.28,54.29-.09,81.44-.09Z"/><path d="M56.12,131.47c0-8.46-.08-16.26.07-24.06a6.24,6.24,0,0,1,1.64-3.88q41.28-41.37,82.68-82.6a.86.86,0,0,1,.52-.24l26,26c-.85.91-1.93,2.14-3.08,3.3q-39.21,39.19-78.51,78.3a12.06,12.06,0,0,1-7.24,3.07C71.07,131.73,63.92,131.47,56.12,131.47Z"/><path d="M175.29,39.77,148.6,13c3.62-3.69,7.24-7.73,11.26-11.34,2.66-2.38,5.89-2.23,8.54.35,5.83,5.69,11.63,11.42,17.29,17.27,2.78,2.88,2.35,6.08-.12,9C182.22,32.16,178.74,35.93,175.29,39.77Z"/></g></g></g></svg>