<svg width="64" height="66" viewBox="0 0 64 66" fill="none" xmlns="http://www.w3.org/2000/svg">
<g filter="url(#filter0_d)">
<path d="M50 58H16C14.343 58 13 56.657 13 55V9C13 7.343 14.343 6 16 6H36.757C37.553 6 38.316 6.316 38.878 6.879L52.121 20.122C52.684 20.684 53 21.447 53 22.243V55C53 56.657 51.657 58 50 58Z" fill="url(#paint0_linear)"/>
<path d="M52.121 20.122L38.878 6.87899C38.623 6.62399 38.322 6.42699 38 6.27899V18C38 19.657 39.343 21 41 21H52.721C52.574 20.678 52.377 20.377 52.121 20.122Z" fill="url(#paint1_linear)"/>
<path d="M41 21C39.343 21 38 19.657 38 18V21C38 22.657 39.343 24 41 24H53V22.243C53 21.809 52.898 21.388 52.721 21H41Z" fill="url(#paint2_linear)"/>
<path d="M21.5 21H13V9C13 7.343 14.343 6 16 6H25.5C26.881 6 28 7.119 28 8.5C28 9.881 26.881 11 25.5 11H20.5C19.119 11 18 12.119 18 13.5C18 14.881 19.119 16 20.5 16H21.5C22.881 16 24 17.119 24 18.5C24 19.881 22.881 21 21.5 21ZM29 17C27.895 17 27 17.895 27 19C27 20.105 27.895 21 29 21C30.105 21 31 20.105 31 19C31 17.895 30.105 17 29 17Z" fill="url(#paint3_linear)"/>
<path d="M44 41H53V55C53 56.657 51.657 58 50 58H33C31.343 58 30 56.657 30 55C30 53.343 31.343 52 33 52H44.5C45.881 52 47 50.881 47 49.5C47 48.119 45.881 47 44.5 47H44C42.343 47 41 45.657 41 44C41 42.343 42.343 41 44 41ZM36 41C34.343 41 33 42.343 33 44C33 45.657 34.343 47 36 47C37.657 47 39 45.657 39 44C39 42.343 37.657 41 36 41Z" fill="url(#paint4_linear)"/>
</g>
<defs>
<filter id="filter0_d" x="-4" y="0" width="72" height="72" filterUnits="userSpaceOnUse" color-interpolation-filters="sRGB">
<feFlood flood-opacity="0" result="BackgroundImageFix"/>
<feColorMatrix in="SourceAlpha" type="matrix" values="0 0 0 0 0 0 0 0 0 0 0 0 0 0 0 0 0 0 127 0"/>
<feOffset dy="4"/>
<feGaussianBlur stdDeviation="2"/>
<feColorMatrix type="matrix" values="0 0 0 0 0 0 0 0 0 0 0 0 0 0 0 0 0 0 0.25 0"/>
<feBlend mode="normal" in2="BackgroundImageFix" result="effect1_dropShadow"/>
<feBlend mode="normal" in="SourceGraphic" in2="effect1_dropShadow" result="shape"/>
</filter>
<linearGradient id="paint0_linear" x1="33" y1="58" x2="33" y2="6" gradientUnits="userSpaceOnUse">
<stop stop-color="#41BFEC"/>
<stop offset="0.232" stop-color="#4CC5EF"/>
<stop offset="0.644" stop-color="#6BD4F6"/>
<stop offset="1" stop-color="#8AE4FD"/>
</linearGradient>
<linearGradient id="paint1_linear" x1="38.879" y1="20.121" x2="46.454" y2="12.546" gradientUnits="userSpaceOnUse">
<stop stop-color="#C6EFFD"/>
<stop offset="0.375" stop-color="#B7ECFD"/>
<stop offset="1" stop-color="#95E6FD"/>
</linearGradient>
<linearGradient id="paint2_linear" x1="45.5" y1="24.083" x2="45.5" y2="18.083" gradientUnits="userSpaceOnUse">
<stop stop-color="#42C6EE"/>
<stop offset="0.48" stop-color="#3BC3ED"/>
<stop offset="1" stop-color="#2EBEEA"/>
</linearGradient>
<linearGradient id="paint3_linear" x1="22" y1="21" x2="22" y2="6" gradientUnits="userSpaceOnUse">
<stop stop-color="#81DCF7"/>
<stop offset="0.48" stop-color="#8CE1F9"/>
<stop offset="1" stop-color="#9EE8FD"/>
</linearGradient>
<linearGradient id="paint4_linear" x1="41.5" y1="41" x2="41.5" y2="58" gradientUnits="userSpaceOnUse">
<stop stop-color="#47C3EE"/>
<stop offset="0.98" stop-color="#32B5E8"/>
<stop offset="1" stop-color="#32B5E8"/>
</linearGradient>
</defs>
</svg>
