<svg width="203" height="24" viewBox="0 0 203 24" fill="none" xmlns="http://www.w3.org/2000/svg">
<path fill-rule="evenodd" clip-rule="evenodd" d="M200 9H193.69L194.64 4.43L194.67 4.11C194.67 3.7 194.5 3.32 194.23 3.05L193.17 2L186.59 8.59C186.22 8.95 186 9.45 186 10V20C186 21.1 186.9 22 188 22H197C197.83 22 198.54 21.5 198.84 20.78L201.86 13.73C201.95 13.5 202 13.26 202 13V11C202 9.9 201.1 9 200 9ZM200 13L197 20H188V10L192.34 5.66L191.23 11H200V13ZM184 10H180V22H184V10Z" fill="#CED4EC"/>
<path fill-rule="evenodd" clip-rule="evenodd" d="M158 6H148C144.69 6 142 8.69 142 12C142 15.31 144.69 18 148 18H158C161.31 18 164 15.31 164 12C164 8.69 161.31 6 158 6ZM158 16H148C145.79 16 144 14.21 144 12C144 9.79 145.79 8 148 8H158C160.21 8 162 9.79 162 12C162 14.21 160.21 16 158 16ZM145 12C145 10.34 146.34 9 148 9C149.66 9 151 10.34 151 12C151 13.66 149.66 15 148 15C146.34 15 145 13.66 145 12Z" fill="#CED4EC"/>
<path d="M117 18.27L123.18 22L121.54 14.97L127 10.24L119.81 9.63L117 3L114.19 9.63L107 10.24L112.46 14.97L110.82 22L117 18.27Z" fill="#CED4EC"/>
<path fill-rule="evenodd" clip-rule="evenodd" d="M82 2C76.48 2 72 6.48 72 12C72 17.52 76.48 22 82 22C87.52 22 92 17.52 92 12C92 6.48 87.52 2 82 2ZM82 20C77.58 20 74 16.42 74 12C74 7.58 77.58 4 82 4C86.42 4 90 7.58 90 12C90 16.42 86.42 20 82 20ZM77 12C77 9.23858 79.2386 7 82 7C84.7614 7 87 9.23858 87 12C87 14.7614 84.7614 17 82 17C79.2386 17 77 14.7614 77 12Z" fill="#CED4EC"/>
<path fill-rule="evenodd" clip-rule="evenodd" d="M55 3H41C39.9 3 39 3.9 39 5V19C39 20.1 39.9 21 41 21H55C56.1 21 57 20.1 57 19V5C57 3.9 56.1 3 55 3ZM55 19H41V5H55V19ZM52.58 7.58L53.99 9L45.99 17L41.99 13.01L43.41 11.6L45.99 14.17L52.58 7.58Z" fill="#CED4EC"/>
<path d="M5 4.5V7.5H10.5V19.5H13.5V7.5H19V4.5H5Z" fill="#CED4EC"/>
</svg>
